<svg width="700" height="349" viewBox="0 0 700 349" fill="none" xmlns="http://www.w3.org/2000/svg">
<g clip-path="url(#clip0_52700_24422)">
<mask id="mask0_52700_24422" style="mask-type:alpha" maskUnits="userSpaceOnUse" x="0" y="0" width="437" height="349">
<path d="M436.031 0H0V348.492H436.031V0Z" fill="white"/>
</mask>
<g mask="url(#mask0_52700_24422)">
<path d="M396.161 348.461L396.135 348.218C395.718 344.132 396.197 340.006 397.538 336.124C398.88 332.242 401.05 328.699 403.9 325.74C405.512 324.094 407.325 322.656 409.296 321.462L409.484 321.347L409.546 321.558C410.283 324.076 411.264 326.617 411.713 327.743L412.706 319.678L412.92 319.585C413.901 319.154 414.99 319.026 416.045 319.219C417.099 319.411 418.072 319.915 418.838 320.665C419.632 321.412 420.185 322.378 420.424 323.441C420.663 324.504 420.578 325.615 420.18 326.629C419.826 327.558 419.485 328.524 419.154 329.458C418.019 332.668 416.845 335.986 414.861 338.702C413.339 340.744 411.379 342.42 409.126 343.608C406.872 344.797 404.381 345.467 401.835 345.571L396.161 348.461Z" fill="#F2F2F2"/>
<path d="M192.205 345.571C189.66 345.467 187.169 344.797 184.915 343.608C182.661 342.42 180.702 340.744 179.18 338.702C177.195 335.986 176.022 332.667 174.886 329.458C174.556 328.524 174.215 327.558 173.86 326.629C173.462 325.615 173.378 324.504 173.617 323.441C173.856 322.378 174.409 321.412 175.203 320.665C175.968 319.915 176.941 319.411 177.996 319.219C179.051 319.026 180.139 319.154 181.121 319.585L181.335 319.678L182.328 327.743C182.777 326.617 183.758 324.076 184.495 321.558L184.557 321.347L184.745 321.462C186.716 322.656 188.529 324.094 190.141 325.74C192.991 328.699 195.161 332.242 196.502 336.124C197.844 340.006 198.322 344.132 197.905 348.218L197.88 348.461L192.205 345.571Z" fill="#F2F2F2"/>
<path d="M127.593 180.317C127.593 180.317 124.957 159.026 119.018 152.539L105.04 157.947L116.077 186.086L138.411 214.233C138.523 215.278 138.91 216.273 139.532 217.12C140.155 217.966 140.99 218.633 141.953 219.052C142.917 219.471 143.973 219.629 145.018 219.508C146.062 219.387 147.055 218.993 147.897 218.365C148.739 217.736 149.399 216.896 149.812 215.93C150.224 214.965 150.373 213.907 150.244 212.864C150.114 211.822 149.711 210.833 149.076 209.997C148.44 209.161 147.594 208.507 146.624 208.104L127.593 180.317Z" fill="#A0616A"/>
<path d="M56.3484 192.181C56.3484 192.181 65.9092 172.973 64.5398 164.288L49.8954 161.093L43.5581 190.644L46.6366 226.431C46.1537 227.364 45.9265 228.407 45.9779 229.456C46.0293 230.505 46.3575 231.521 46.9293 232.402C47.501 233.283 48.2959 233.998 49.2332 234.473C50.1705 234.947 51.2169 235.166 52.2661 235.106C53.3153 235.047 54.3301 234.71 55.2072 234.132C56.0844 233.554 56.7928 232.754 57.2606 231.814C57.7283 230.873 57.9387 229.826 57.8705 228.779C57.8021 227.73 57.4576 226.719 56.8718 225.847L56.3484 192.181Z" fill="#A0616A"/>
<path d="M73.2609 339.375H80.1888L83.4844 312.676L73.2595 312.676L73.2609 339.375Z" fill="#9E616A"/>
<path d="M73.0168 346.596L94.3211 346.595V346.326C94.3211 344.129 93.4472 342.021 91.8919 340.468C90.3373 338.914 88.2276 338.041 86.0285 338.041L82.1369 335.091L74.8764 338.041H73.0168V346.596Z" fill="#2F2E41"/>
<path d="M92.2412 335.458L98.9986 336.984L108.104 311.667L98.1302 309.416L92.2412 335.458Z" fill="#9E616A"/>
<path d="M90.4102 342.448L111.19 347.139L111.25 346.876C111.735 344.733 111.347 342.485 110.173 340.627C109 338.77 107.135 337.454 104.99 336.969H104.989L101.844 333.235L94.1111 334.514L92.2974 334.104L90.4102 342.448Z" fill="#2F2E41"/>
<path d="M123.449 266.617C119.334 279.712 108.811 314.471 108.811 314.471C108.811 314.471 99.8547 316.705 97.029 314.471C94.2034 312.237 97.7221 304.777 97.7221 304.777C95.8591 296.419 100.051 287.971 100.322 279.868C99.7576 276.468 102.753 273.548 103.028 270.305C101.047 268.799 91.4131 245.17 89.4482 238.569C90.458 258.687 88.0191 288.85 85.2468 308.239C83.9342 317.417 82.1052 314.735 72.7716 315.164C68.6099 313.929 69.3061 304.777 69.3061 304.777V297.16C67.2831 288.63 67.2564 286.788 67.92 282.618C67.6158 278.192 63.8029 232.433 60.4194 216.946C58.1647 204.608 85.7985 201.892 93.7459 198.951C107.007 192.567 104.769 201.642 111.753 210.002C118.486 224.413 122.453 250.147 123.449 266.617Z" fill="#2F2E41"/>
<path d="M96.8438 132.833L90.1391 123.258H78.3569L67.9609 132.952L67.0869 219.085L114.132 224.355L96.8438 132.833Z" fill="#35FF1F"/>
<path d="M92.1824 125.508L110.85 134.044L114.397 189.042C114.397 189.042 117.39 196.106 117.628 196.801C117.879 197.531 118.377 201.133 118.161 201.732C117.499 203.666 117.163 205.695 117.169 207.738C117.33 209.306 119.006 212.104 119.444 213.618C119.746 214.661 117.862 218.125 117.862 218.125C118.635 219.288 119.143 220.607 119.351 221.988C119.558 223.368 119.46 224.778 119.061 226.116L118.555 227.819L108.852 226.435L104.669 205.884L104.227 203.715L103.77 201.471L103.413 199.717L103.095 198.157L102.829 196.849L92.1824 125.508Z" fill="#3F3D56"/>
<path d="M99.0681 136.814L110.85 134.044C116.535 140.649 121.153 153.676 124.796 165.543C125.055 166.388 124.852 167.555 125.559 168.057C126.844 168.969 127.61 170.071 126.681 171.837C126.326 172.513 127.107 173.29 127.313 173.999C127.487 174.595 127.251 175.587 127.828 175.758C129.476 176.248 129.555 177.657 128.91 179.442L115.049 186.367L114.654 185.729L113.097 183.217L106.397 172.407L99.0681 136.814Z" fill="#3F3D56"/>
<path d="M75.5847 126.028L65.1073 135.429C65.1073 135.429 62.6557 175.23 61.0301 190.427C60.961 191.073 61.8631 192.616 61.7939 193.262L61.3881 197.057L61.0826 199.913C60.9728 200.94 59.6439 211.2 59.6439 211.2L57.5652 212.585C56.6811 216.548 57.1754 220.694 58.9665 224.338L60.337 227.127L75.5036 225.448L75.5847 126.028Z" fill="#3F3D56"/>
<path d="M69.3374 141.326L65.1073 135.429L51.939 143.738C49.0331 151.77 45.8462 165.783 44.0861 177.971C44.0462 178.246 44.2326 178.711 43.9688 178.795C43.0205 179.095 42.734 179.571 43.7519 180.394C43.8703 180.542 43.9578 180.711 44.0093 180.893C44.0609 181.076 44.0753 181.266 44.0519 181.454C44.0284 181.641 43.9674 181.822 43.8727 181.985C43.778 182.15 43.6513 182.292 43.5002 182.406C42.3839 182.937 41.5258 183.46 43.3222 183.973C44.5856 184.334 43.0626 186.542 42.9694 187.752L58.2169 191.214C59.6102 190.813 59.8744 189.998 59.1324 188.812C60.2807 188.466 60.7155 187.851 59.912 186.768L60.2889 185.779C61.5699 185.581 61.5521 185.051 60.837 184.342L61.3568 182.978L63.7614 176.672L69.3374 141.326Z" fill="#3F3D56"/>
<path d="M82.5841 120.559C91.1421 120.559 98.0797 113.627 98.0797 105.077C98.0797 96.5262 91.1421 89.5947 82.5841 89.5947C74.0268 89.5947 67.0889 96.5262 67.0889 105.077C67.0889 113.627 74.0268 120.559 82.5841 120.559Z" fill="#A0616A"/>
<path d="M66.8929 115.052C66.8929 115.052 70.3056 115.987 72.292 116.507C72.1894 115.031 71.549 113.649 71.2239 112.204C70.8989 110.76 70.9696 109.06 72.0438 108.041C73.1188 107.021 75.356 107.419 75.5293 108.886C76.4386 106.944 77.3493 104.998 78.2621 103.049C80.8645 108.401 86.1852 103.841 91.9869 105.193C94.9463 105.89 98.6556 105.59 100.219 102.985C99.3404 102.248 98.6002 101.36 98.0326 100.364C98.9349 100.628 99.8726 100.747 100.812 100.716C100.791 99.7842 100.546 98.8708 100.097 98.053C99.6488 97.2352 99.0105 96.5373 98.2363 96.0179C97.4019 95.4729 99.4672 93.5334 98.7388 92.8506C97.2452 91.4574 96.243 92.4033 95.3601 90.5669C94.7918 89.4312 93.915 88.4777 92.8304 87.815C91.7457 87.153 90.4968 86.8075 89.2257 86.8193C86.6898 86.8788 82.146 86.8546 81.1626 89.1889C78.0264 87.1378 73.6615 87.7174 70.5967 89.8689C68.0491 91.6499 65.1498 97.0337 64.51 100.074C63.8701 103.113 65.2802 112.403 66.8929 115.052Z" fill="#2F2E41"/>
<path d="M137.495 183.429C137.23 183.429 136.968 183.484 136.726 183.59C136.483 183.697 136.265 183.852 136.085 184.046C135.906 184.242 135.769 184.471 135.683 184.721C135.596 184.972 135.563 185.237 135.585 185.501C138.512 193.059 138.115 201.809 137.74 211.709C137.783 212.187 138.002 212.632 138.355 212.958C138.709 213.283 139.171 213.465 139.651 213.467H152.02C152.5 213.465 152.962 213.283 153.316 212.958C153.669 212.632 153.888 212.187 153.931 211.709C152.926 202.091 153.468 193.265 156.086 185.501C156.108 185.237 156.075 184.972 155.988 184.721C155.902 184.471 155.765 184.242 155.586 184.046C155.406 183.852 155.188 183.697 154.945 183.59C154.703 183.484 154.441 183.429 154.175 183.429H137.495Z" fill="#35FF1F"/>
<path d="M157.077 186.922L156.154 182.543C156.07 182.145 155.852 181.787 155.535 181.531C155.219 181.274 154.824 181.134 154.417 181.134H148.657C148.634 181.058 148.597 180.986 148.548 180.924L147.908 180.124C147.848 180.049 147.772 179.988 147.684 179.946C147.598 179.905 147.502 179.883 147.406 179.883H143.849C143.752 179.883 143.657 179.905 143.569 179.946C143.483 179.988 143.406 180.049 143.346 180.124L142.706 180.924C142.657 180.986 142.62 181.058 142.598 181.134H137.255C136.847 181.134 136.452 181.274 136.136 181.531C135.82 181.787 135.601 182.145 135.517 182.543L134.595 186.922C134.54 187.18 134.544 187.448 134.607 187.704C134.668 187.961 134.787 188.2 134.953 188.405C135.12 188.61 135.33 188.775 135.569 188.889C135.807 189.002 136.068 189.061 136.332 189.061C142.226 192.082 148.551 192.156 155.34 189.061C155.604 189.061 155.864 189.002 156.103 188.889C156.341 188.775 156.552 188.61 156.718 188.405C156.885 188.2 157.003 187.961 157.066 187.704C157.127 187.448 157.131 187.18 157.077 186.922Z" fill="#3F3D56"/>
<path d="M313.96 189.137C313.657 187.983 312.583 184.46 311.219 186.016C311.016 186.247 310.856 185.505 310.668 185.232C310.343 184.759 310.146 182.744 309.801 182.212C309.101 181.131 308.231 181.45 307.518 180.196C305.481 176.61 303.579 172.515 302.871 169.055C300.701 158.462 303.689 143.976 303.689 143.976L302.722 123.341L295.665 123.104V122.64C295.665 121.709 295.295 120.816 294.635 120.157C293.976 119.499 293.082 119.129 292.15 119.129H278.709C277.816 119.129 276.957 119.469 276.307 120.08C275.656 120.691 275.262 121.527 275.206 122.417L269.671 122.231L260.087 152.656C260.087 152.656 264.56 164.141 266.138 175.287C266.566 178.293 266.669 181.337 266.447 184.365C266.233 187.435 265.631 190.466 264.656 193.385C264.656 193.385 305.316 201.893 313.267 193.984C313.267 193.984 314.502 191.209 313.96 189.137Z" fill="#3F3D56"/>
<path d="M366.022 191.354H356.417V36.8666C355.751 36.3749 355.079 35.8902 354.4 35.4124C354.261 35.3224 354.129 35.2255 353.998 35.1354C349.906 32.2753 345.634 29.6802 341.211 27.366C339.231 24.7163 337.063 22.2123 334.723 19.8736C327.826 12.9833 319.524 7.65792 310.382 4.25972C301.241 0.861531 291.474 -0.529751 281.747 0.180484C272.019 0.890719 262.558 3.68581 254.008 8.37565C245.458 13.0655 238.02 19.5401 232.198 27.3591C229.204 28.9241 226.288 30.6137 223.451 32.4279C223.181 32.601 222.911 32.7741 222.647 32.9473C222.64 32.9542 222.633 32.9542 222.626 32.9611C222.135 33.2822 221.732 33.7209 221.454 34.2373C221.175 34.7537 221.03 35.3314 221.032 35.9179V191.354H207.379C201.349 191.354 196.144 196.278 196.172 202.302C196.177 203.676 196.442 205.037 196.955 206.312C197.152 206.813 197.391 207.297 197.669 207.759C198.023 208.364 198.433 208.935 198.896 209.462C199.917 210.626 201.176 211.559 202.588 212.198C203.999 212.837 205.531 213.168 207.081 213.167H366.32C369.206 213.163 371.974 212.018 374.018 209.983C376.062 207.947 377.216 205.186 377.229 202.302C377.257 196.278 372.052 191.354 366.022 191.354ZM316.475 191.354H260.565L252.858 84.9579H324.182L316.475 191.354Z" fill="#E6E6E6"/>
<path d="M325.49 151.836L349.383 130.567L356.432 134.056L327.775 164.086L325.49 151.836Z" fill="#FFB6B6"/>
<path d="M298.775 125.454L302.722 123.341C302.722 123.341 312.446 122.512 316.414 133.925L326.939 149.808L343.998 135.036L351.39 140.149L329.891 165.785L320.952 166.927L301.618 141.929L298.775 125.454Z" fill="#3F3D56"/>
<path d="M305.208 107.198C303.051 121.807 292.314 123.346 284.454 115.72C276.23 107.741 263.699 117.238 263.699 107.198C263.699 97.1571 268.238 79.3594 284.454 79.3594C301.228 79.3594 306.676 97.2651 305.208 107.198Z" fill="#2F2E41"/>
<path d="M284.384 115.703C292.097 115.703 298.35 109.456 298.35 101.749C298.35 94.043 292.097 87.7957 284.384 87.7957C276.671 87.7957 270.418 94.043 270.418 101.749C270.418 109.456 276.671 115.703 284.384 115.703Z" fill="#FFB6B6"/>
<path d="M268.248 100.38H273.771L276.208 93.5632L276.695 100.38H279.336L280.757 96.4036L281.042 100.38C285.07 104.019 292.528 102.688 300.66 100.38C300.66 98.4409 300.277 96.52 299.534 94.7279C298.791 92.9358 297.702 91.3078 296.329 89.9361C294.956 88.5643 293.326 87.4764 291.533 86.7341C289.739 85.9918 287.816 85.6096 285.875 85.6096H283.032C281.09 85.6096 279.168 85.9918 277.375 86.7341C275.58 87.4764 273.951 88.5643 272.578 89.9361C271.205 91.3078 270.116 92.9358 269.373 94.7279C268.63 96.52 268.248 98.4409 268.248 100.38Z" fill="#2F2E41"/>
<path d="M242.553 200.424C243.658 200.421 244.739 200.096 245.662 199.489C246.585 198.881 247.311 198.018 247.75 197.004C248.189 195.991 248.323 194.872 248.135 193.784C247.947 192.696 247.445 191.686 246.691 190.878L254.465 170.367L256.057 163.511C255.175 162.957 254.178 162.612 253.141 162.5C252.105 162.388 251.057 162.512 250.077 162.865C249.096 163.217 248.208 163.788 247.481 164.533C246.753 165.279 246.205 166.18 245.878 167.169L237.779 191.627C237.215 192.485 236.894 193.48 236.85 194.506C236.807 195.531 237.043 196.55 237.533 197.452C238.022 198.355 238.748 199.108 239.632 199.631C240.516 200.154 241.526 200.429 242.553 200.424Z" fill="#FFB6B6"/>
<path d="M336.683 110.185C336.419 110.185 336.157 110.24 335.913 110.346C335.671 110.452 335.453 110.608 335.274 110.803C335.094 110.997 334.957 111.227 334.87 111.478C334.784 111.728 334.751 111.993 334.772 112.258C336.924 121.527 337.836 130.336 336.929 138.465C336.97 138.943 337.19 139.389 337.543 139.714C337.896 140.039 338.358 140.22 338.839 140.223H351.207C351.688 140.22 352.15 140.039 352.504 139.714C352.857 139.389 353.076 138.943 353.118 138.465C352.43 129.67 353.157 120.822 355.274 112.258C355.296 111.993 355.262 111.728 355.176 111.478C355.09 111.227 354.953 110.997 354.774 110.803C354.594 110.608 354.376 110.452 354.133 110.346C353.891 110.24 353.628 110.185 353.363 110.185H336.683Z" fill="#35FF1F"/>
<path d="M356.265 113.678L355.341 109.299C355.258 108.9 355.039 108.543 354.723 108.287C354.406 108.031 354.012 107.89 353.605 107.89H347.844C347.822 107.814 347.785 107.743 347.736 107.68L347.096 106.881C347.036 106.805 346.959 106.744 346.872 106.703C346.785 106.66 346.69 106.639 346.593 106.639H343.036C342.94 106.639 342.845 106.66 342.757 106.703C342.67 106.744 342.594 106.805 342.533 106.881L341.893 107.68C341.845 107.743 341.808 107.814 341.785 107.89H336.442C336.035 107.89 335.64 108.031 335.323 108.287C335.007 108.543 334.789 108.9 334.705 109.299L333.782 113.678C333.728 113.936 333.732 114.203 333.794 114.46C333.856 114.716 333.975 114.956 334.141 115.161C334.307 115.366 334.517 115.531 334.756 115.645C334.994 115.759 335.256 115.817 335.52 115.817C341.891 118.471 348.234 118.994 354.527 115.817C354.791 115.817 355.052 115.759 355.291 115.645C355.529 115.531 355.739 115.366 355.906 115.161C356.072 114.956 356.191 114.716 356.253 114.46C356.315 114.203 356.319 113.936 356.265 113.678Z" fill="#3F3D56"/>
<path d="M280.524 26.6124C280.347 26.6124 280.17 26.6491 280.008 26.7204C279.845 26.7916 279.699 26.8957 279.579 27.0263C279.459 27.1567 279.367 27.3107 279.309 27.4784C279.251 27.6462 279.229 27.8241 279.244 28.001L280.688 45.5627C280.717 45.8833 280.863 46.1817 281.1 46.3996C281.337 46.6176 281.647 46.7393 281.968 46.7411H290.257C290.578 46.7393 290.888 46.6176 291.125 46.3996C291.362 46.1817 291.509 45.8833 291.537 45.5627L292.982 28.001C292.996 27.8241 292.974 27.6462 292.916 27.4784C292.858 27.3107 292.766 27.1567 292.646 27.0263C292.526 26.8957 292.38 26.7916 292.217 26.7204C292.055 26.6491 291.879 26.6124 291.701 26.6124H280.524Z" fill="white"/>
<path d="M293.645 28.9531L293.027 26.0185C292.971 25.7517 292.825 25.5122 292.612 25.3404C292.4 25.1686 292.136 25.0748 291.863 25.0748H288.003C287.988 25.0236 287.963 24.9757 287.93 24.9335L287.501 24.3978C287.461 24.3474 287.41 24.3066 287.351 24.2786C287.293 24.2506 287.229 24.2361 287.164 24.2361H284.781C284.716 24.2361 284.653 24.2506 284.594 24.2786C284.536 24.3066 284.485 24.3474 284.444 24.3978L284.015 24.9335C283.982 24.9757 283.958 25.0236 283.943 25.0748H280.362C280.089 25.0748 279.825 25.1686 279.613 25.3404C279.401 25.5122 279.254 25.7517 279.198 26.0185L278.58 28.9531C278.544 29.1262 278.546 29.3052 278.587 29.4771C278.629 29.649 278.709 29.8095 278.82 29.9469C278.932 30.0842 279.073 30.1949 279.233 30.271C279.392 30.347 279.567 30.3865 279.744 30.3865H292.481C292.658 30.3865 292.833 30.347 292.993 30.271C293.152 30.1949 293.294 30.0842 293.405 29.9469C293.516 29.8095 293.596 29.649 293.637 29.4771C293.679 29.3052 293.682 29.1262 293.645 28.9531Z" fill="#CCCCCC"/>
<path d="M286.278 56.7817C281.754 56.7817 277.332 55.4415 273.571 52.9306C269.81 50.4197 266.879 46.8508 265.147 42.6753C263.416 38.4998 262.964 33.9052 263.846 29.4725C264.728 25.0398 266.906 20.9681 270.105 17.7723C273.304 14.5765 277.379 12.4001 281.816 11.5184C286.252 10.6367 290.851 11.0892 295.03 12.8188C299.209 14.5484 302.781 17.4773 305.294 21.2351C307.807 24.9929 309.149 29.411 309.149 33.9305C309.142 39.9889 306.73 45.7973 302.442 50.0812C298.155 54.3652 292.341 56.7749 286.278 56.7817ZM286.278 12.4643C282.029 12.4643 277.874 13.7232 274.341 16.082C270.808 18.4407 268.054 21.7933 266.428 25.7157C264.802 29.6382 264.376 33.9544 265.206 38.1184C266.035 42.2824 268.081 46.1074 271.086 49.1095C274.09 52.1116 277.919 54.1561 282.086 54.9844C286.254 55.8126 290.574 55.3875 294.5 53.7628C298.426 52.138 301.781 49.3867 304.142 45.8566C306.503 42.3265 307.763 38.1761 307.763 33.9305C307.757 28.2393 305.49 22.783 301.463 18.7587C297.435 14.7344 291.974 12.4708 286.278 12.4643Z" fill="#F2F2F2"/>
<path d="M356.278 347.615H219.743L219.896 331.766L219.909 330.388L221.129 206.353H355.585L355.758 242.185L355.765 243.564L356.278 347.615Z" fill="#E6E6E6"/>
<path d="M435.116 348.229L0.822659 348.308C0.604257 348.308 0.395008 348.275 0.240795 348.217C0.0865824 348.16 0 348.082 0 348.001C0 347.92 0.0865824 347.841 0.240795 347.784C0.395008 347.727 0.604257 347.695 0.822659 347.694L435.116 347.615C435.334 347.615 435.544 347.648 435.699 347.705C435.854 347.763 435.941 347.84 435.941 347.922C435.941 348.003 435.854 348.081 435.699 348.139C435.544 348.196 435.334 348.229 435.116 348.229Z" fill="#3F3D56"/>
<path d="M213.04 163.348C212.775 163.347 212.513 163.403 212.271 163.509C212.028 163.615 211.81 163.77 211.63 163.965C211.451 164.16 211.313 164.389 211.227 164.64C211.141 164.891 211.108 165.156 211.13 165.42C213.088 174.639 213.948 183.431 213.285 191.627C213.327 192.106 213.546 192.551 213.9 192.876C214.253 193.201 214.716 193.383 215.196 193.385H227.564C228.045 193.383 228.507 193.201 228.861 192.876C229.214 192.551 229.433 192.106 229.475 191.627C228.476 183.359 229.532 174.531 231.631 165.42C231.653 165.156 231.62 164.891 231.533 164.64C231.447 164.389 231.31 164.16 231.13 163.965C230.951 163.77 230.732 163.615 230.49 163.509C230.247 163.403 229.985 163.347 229.72 163.348H213.04Z" fill="#35FF1F"/>
<path d="M232.621 166.841L231.699 162.462C231.615 162.063 231.397 161.706 231.08 161.449C230.764 161.193 230.369 161.053 229.961 161.053H224.201C224.178 160.977 224.141 160.905 224.093 160.843L223.453 160.043C223.392 159.967 223.316 159.906 223.229 159.865C223.141 159.823 223.046 159.801 222.95 159.801H219.393C219.296 159.801 219.201 159.823 219.114 159.865C219.027 159.906 218.95 159.967 218.89 160.043L218.25 160.843C218.201 160.905 218.164 160.977 218.142 161.053H212.799C212.392 161.053 211.997 161.193 211.681 161.449C211.364 161.706 211.146 162.063 211.062 162.462L210.139 166.841C210.085 167.099 210.089 167.366 210.15 167.622C210.213 167.879 210.331 168.119 210.498 168.324C210.664 168.529 210.874 168.694 211.113 168.807C211.352 168.921 211.612 168.98 211.876 168.98C218.068 170.891 224.692 170.891 230.884 168.98C231.148 168.98 231.409 168.921 231.647 168.807C231.886 168.694 232.097 168.529 232.263 168.324C232.429 168.119 232.548 167.879 232.609 167.622C232.672 167.366 232.676 167.099 232.621 166.841Z" fill="#3F3D56"/>
<path d="M285.377 263.827H221.822V265.212H285.377V263.827Z" fill="#F2F2F2"/>
<path d="M355.377 212.585H291.822V213.97H355.377V212.585Z" fill="#F2F2F2"/>
<path d="M320.031 308.145H256.476V309.53H320.031V308.145Z" fill="#F2F2F2"/>
<path d="M355.765 243.746H325.783V242.361H355.758L355.765 243.746Z" fill="#F2F2F2"/>
<path d="M228.24 202.891H198.258V201.506H228.233L228.24 202.891Z" fill="#F2F2F2"/>
<path d="M251.804 66.4762H221.822V65.0912H251.798L251.804 66.4762Z" fill="#F2F2F2"/>
<path d="M352.3 38.0853H322.317V36.7004H352.293L352.3 38.0853Z" fill="#F2F2F2"/>
<path d="M321.804 66.4762H291.822V65.0912H321.798L321.804 66.4762Z" fill="#F2F2F2"/>
<path d="M238.941 330.996V332.381H219.896L219.91 330.996H238.941Z" fill="#F2F2F2"/>
<path d="M353.914 139.261C357.054 139.261 359.6 136.718 359.6 133.58C359.6 130.442 357.054 127.899 353.914 127.899C350.773 127.899 348.227 130.442 348.227 133.58C348.227 136.718 350.773 139.261 353.914 139.261Z" fill="#FFB6B6"/>
<path d="M272.05 126.022L269.671 122.231C269.671 122.231 261.932 120.319 258.746 125.443C255.56 130.567 238.415 185.674 238.415 185.674L248.118 189.137L266.831 146.373L272.05 126.022Z" fill="#3F3D56"/>
</g>
<mask id="mask1_52700_24422" style="mask-type:alpha" maskUnits="userSpaceOnUse" x="241" y="92" width="459" height="257">
<path d="M699.398 92.2814H241.279V348.492H699.398V92.2814Z" fill="white"/>
</mask>
<g mask="url(#mask1_52700_24422)">
<path d="M337.69 347.516H267.701C267.701 347.516 266.283 326.724 274.676 326.488C283.07 326.251 282.124 335.703 292.646 322.707C303.169 309.713 315.937 310.422 317.592 318.1C319.247 325.78 314.4 331.922 323.267 330.032C332.133 328.142 344.902 333.103 337.69 347.516Z" fill="#E6E6E6"/>
<path d="M301.515 347.521L301.279 347.512C301.83 333.823 304.698 325.028 307.008 320.059C309.516 314.666 311.933 312.482 311.957 312.46L312.115 312.637C312.091 312.658 309.702 314.82 307.215 320.178C304.917 325.124 302.064 333.884 301.515 347.521Z" fill="white"/>
<path d="M326.845 347.549L326.618 347.482C328.378 341.681 331.551 336.406 335.853 332.131L336.012 332.306C331.742 336.552 328.592 341.789 326.845 347.549Z" fill="white"/>
<path d="M278.725 347.532L278.491 347.5C279.254 342.368 278.447 337.125 276.175 332.459C275.243 330.502 274.01 328.704 272.521 327.129L272.685 326.958C274.194 328.552 275.444 330.373 276.389 332.354C278.681 337.063 279.495 342.353 278.725 347.532Z" fill="white"/>
<path d="M347.189 347.832H260.153L260.133 347.537C260.083 346.805 258.973 329.517 264.578 323.348C265.134 322.697 265.821 322.169 266.594 321.798C267.366 321.428 268.208 321.223 269.065 321.197C272.719 321.093 275.015 322.461 276.867 323.558C280.358 325.628 282.664 326.995 291.05 316.639C300.132 305.421 309.934 303.007 315.568 304.349C319.208 305.217 321.716 307.668 322.451 311.075C323.148 314.3 322.924 317.331 322.746 319.767C322.556 322.373 322.405 324.431 323.477 325.364C324.373 326.142 326.156 326.212 329.092 325.586C335.066 324.313 343.403 325.402 347.587 330.805C349.838 333.711 351.611 338.994 347.277 347.657L347.189 347.832ZM260.746 347.2H346.797C350.028 340.651 350.129 335.119 347.086 331.192C343.248 326.236 335.195 324.932 329.224 326.205C326.033 326.885 324.132 326.773 323.061 325.841C321.751 324.701 321.912 322.503 322.116 319.723C322.29 317.328 322.508 314.346 321.832 311.209C321.151 308.05 318.814 305.775 315.42 304.966C309.965 303.666 300.436 306.049 291.54 317.038C282.812 327.818 280.182 326.26 276.544 324.102C274.669 322.99 272.54 321.73 269.082 321.829C268.311 321.853 267.553 322.039 266.858 322.374C266.163 322.709 265.546 323.185 265.046 323.773C260.01 329.317 260.624 344.863 260.747 347.2H260.746Z" fill="#2F2E41"/>
<path d="M631.577 348.183H545.849L545.833 347.703L541.74 230.722H635.686L631.577 348.183ZM546.811 347.189H630.615L634.656 231.717H542.77L546.811 347.189Z" fill="#3F3D56"/>
<path d="M566.299 252.396H559.778V333.026H566.299V252.396Z" fill="#3F3D56"/>
<path d="M591.973 252.396H585.452V333.026H591.973V252.396Z" fill="#3F3D56"/>
<path d="M617.647 252.396H611.126V333.026H617.647V252.396Z" fill="#3F3D56"/>
<path d="M690.162 265.073L689.74 264.808L583.256 197.566L592.493 182.961L592.914 183.226L699.397 250.468L690.162 265.073ZM584.63 197.256L689.851 263.701L698.025 250.778L592.803 184.333L584.63 197.256Z" fill="#3F3D56"/>
<path d="M664.452 192.146C661.356 190.189 657.764 189.16 654.101 189.182C650.439 189.203 646.859 190.274 643.786 192.267C640.715 194.261 638.279 197.094 636.77 200.429C635.261 203.763 634.741 207.461 635.271 211.083L640.349 214.289C639.073 211.329 638.779 208.037 639.51 204.898C640.241 201.758 641.959 198.935 644.412 196.842C646.865 194.748 649.924 193.494 653.142 193.264C656.36 193.034 659.567 193.838 662.293 195.561C665.02 197.283 667.123 199.833 668.295 202.836C669.467 205.839 669.646 209.139 668.806 212.251C667.965 215.364 666.149 218.125 663.625 220.131C661.1 222.138 657.999 223.284 654.775 223.402L659.852 226.608C663.354 225.534 666.474 223.479 668.842 220.686C671.209 217.893 672.726 214.48 673.21 210.852C673.695 207.224 673.128 203.534 671.576 200.217C670.025 196.902 667.554 194.101 664.457 192.146H664.452Z" fill="#3F3D56"/>
<path d="M693.852 347.799H241.279V348.492H693.852V347.799Z" fill="#3F3D56"/>
<path d="M438.921 340.709H431.671L428.22 312.767H438.922L438.921 340.709Z" fill="#FEB8B8"/>
<path d="M417.689 347.434H440.473V338.638H426.37C424.068 338.638 421.859 339.552 420.231 341.179C418.603 342.805 417.689 345.012 417.689 347.312V347.434Z" fill="#2F2E41"/>
<path d="M436.372 297.412L441.373 302.656L463.999 285.88L456.618 278.139L436.372 297.412Z" fill="#FEB8B8"/>
<path d="M446.525 305.059L436.794 294.857L430.42 300.926L446.141 317.409L446.23 317.325C447.055 316.539 447.717 315.599 448.179 314.556C448.64 313.515 448.892 312.392 448.92 311.253C448.947 310.114 448.75 308.981 448.339 307.918C447.928 306.856 447.312 305.884 446.525 305.059Z" fill="#2F2E41"/>
<path d="M385.911 220.861C385.452 220.123 385.161 219.294 385.057 218.432C384.954 217.57 385.041 216.695 385.312 215.87C385.583 215.045 386.032 214.289 386.627 213.656C387.222 213.023 387.949 212.528 388.756 212.206L417.219 139.719L428.314 146.358L396.695 215.895C397.147 217.287 397.072 218.795 396.485 220.135C395.898 221.475 394.84 222.553 393.511 223.165C392.181 223.778 390.673 223.881 389.273 223.456C387.872 223.031 386.676 222.108 385.911 220.861Z" fill="#FEB8B8"/>
<path d="M493.948 226.056C493.081 225.994 492.237 225.743 491.477 225.32C490.718 224.897 490.061 224.313 489.551 223.609C489.042 222.904 488.694 222.097 488.531 221.244C488.368 220.39 488.394 219.511 488.607 218.669L446.617 153.076L458.51 148.002L496.26 214.418C497.654 214.869 498.834 215.815 499.577 217.077C500.318 218.34 500.571 219.831 500.286 221.266C500 222.702 499.197 223.983 498.028 224.867C496.861 225.75 495.408 226.174 493.948 226.058V226.056Z" fill="#FEB8B8"/>
<path d="M417.499 213.603L424.932 323.984L442.694 322.419L446.351 240.981L456.276 275.957L477.696 277.522L469.218 208.382L417.499 213.603Z" fill="#2F2E41"/>
<path d="M459.411 270.737L456.275 275.956L434.336 291.095L450.008 299.447C450.008 299.447 480.309 282.743 477.696 277.523L459.411 270.737Z" fill="#2F2E41"/>
<path d="M401.945 168.942L408.128 151.533C409.504 147.66 411.635 144.097 414.398 141.051C417.16 138.006 420.499 135.538 424.223 133.791C432.591 130.71 441.694 130.212 450.349 132.362L452.599 132.921C458.599 134.373 464.22 137.086 469.09 140.879C472.9 143.88 476.328 147.68 476.633 151.768C476.635 151.777 476.637 151.785 476.64 151.794C477.696 156.416 478.218 180.428 478.218 180.428H468.909L470.382 212.793L470.263 212.559C470.263 212.559 416.573 222.712 416.573 217.491V184.081L415.473 171.984L401.945 168.942Z" fill="#CCCCCC"/>
<path d="M452.06 127.837C460.277 127.837 466.938 121.181 466.938 112.97C466.938 104.759 460.277 98.103 452.06 98.103C443.842 98.103 437.181 104.759 437.181 112.97C437.181 121.181 443.842 127.837 452.06 127.837Z" fill="#FEB8B8"/>
<path d="M454.288 106.302L465.841 106.765C467.294 106.761 468.881 106.71 469.988 105.771C471.656 104.353 471.377 101.679 470.484 99.6818C467.995 94.1193 462.443 92.127 456.347 92.2905C450.25 92.4539 443.862 94.5188 440.579 99.652C437.296 104.785 436.409 111.268 437.645 117.233C439.075 114.2 441.276 111.594 444.028 109.677C446.78 107.759 449.988 106.596 453.33 106.304L454.288 106.302Z" fill="#2F2E41"/>
<path d="M502.988 210.083C502.849 209.944 502.683 209.836 502.5 209.764C502.317 209.693 502.121 209.66 501.925 209.668C501.729 209.676 501.537 209.725 501.36 209.811C501.183 209.897 501.027 210.018 500.9 210.169C497.091 216.025 492.932 221.083 488.285 225.032C488.056 225.304 487.937 225.652 487.952 226.007C487.966 226.363 488.113 226.7 488.364 226.953L494.845 233.429C495.098 233.68 495.436 233.827 495.791 233.841C496.147 233.856 496.495 233.737 496.768 233.508C500.581 228.652 505.764 224.579 511.642 220.902C511.792 220.776 511.914 220.619 512 220.443C512.087 220.267 512.135 220.074 512.143 219.878C512.151 219.682 512.119 219.486 512.047 219.304C511.976 219.121 511.867 218.955 511.728 218.816L502.988 210.083Z" fill="#35FF1F"/>
<path d="M511.416 222.166L513.229 219.388C513.394 219.135 513.467 218.834 513.436 218.534C513.405 218.234 513.271 217.954 513.058 217.741L510.039 214.724C510.068 214.672 510.086 214.616 510.093 214.557L510.177 213.803C510.185 213.732 510.176 213.66 510.153 213.593C510.129 213.525 510.091 213.464 510.04 213.414L508.176 211.551C508.126 211.5 508.065 211.462 507.997 211.439C507.93 211.414 507.857 211.407 507.786 211.414L507.032 211.498C506.973 211.506 506.916 211.524 506.864 211.552L504.065 208.755C503.852 208.541 503.571 208.408 503.271 208.377C502.971 208.345 502.668 208.418 502.416 208.583L499.636 210.395C499.472 210.502 499.333 210.644 499.232 210.811C499.13 210.977 499.066 211.165 499.046 211.36C499.026 211.554 499.049 211.751 499.114 211.935C499.18 212.119 499.286 212.287 499.424 212.425C501.666 216.669 505.137 220.137 509.384 222.377C509.522 222.516 509.69 222.622 509.874 222.687C510.059 222.753 510.255 222.776 510.45 222.756C510.645 222.735 510.833 222.672 511 222.57C511.167 222.468 511.309 222.33 511.416 222.166Z" fill="#3F3D56"/>
</g>
</g>
<defs>
<clipPath id="clip0_52700_24422">
<rect width="700" height="349" fill="white"/>
</clipPath>
</defs>
</svg>
